<?xml version="1.0" encoding="UTF-8"?>
<svg width="32" height="32" version="1.0" viewBox=".5 25.1 32 32" xmlns="http://www.w3.org/2000/svg" xmlns:xlink="http://www.w3.org/1999/xlink">
  <defs>
    <linearGradient id="linearGradient3251">
      <stop offset="0"/>
      <stop stop-opacity="0" offset="1"/>
    </linearGradient>
    <linearGradient id="linearGradient3405" x1="80.5" x2="229.87" y1="506" y2="357.6" gradientTransform="matrix(.62919 0 0 .62919 -.48738 11.006)" gradientUnits="userSpaceOnUse">
      <stop stop-opacity=".23529" offset="0"/>
      <stop stop-color="#969696" stop-opacity="0" offset="1"/>
    </linearGradient>
    <linearGradient id="linearGradient3597" x1="368.37" x2="389.52" y1="115.67" y2="95.825" gradientTransform="matrix(.62919 0 0 .62919 -.31794 10.836)" gradientUnits="userSpaceOnUse">
      <stop stop-color="#fff" offset="0"/>
      <stop stop-color="#969696" offset="1"/>
    </linearGradient>
    <linearGradient id="linearGradient3257" x1="348.04" x2="394.2" y1="139.48" y2="83.419" gradientTransform="matrix(.62919 0 0 .62919 -.31794 10.836)" gradientUnits="userSpaceOnUse" xlink:href="#linearGradient3251"/>
    <linearGradient id="linearGradient1159" x1="272.25" x2="201.71" y1="72.13" y2="122.51" gradientUnits="userSpaceOnUse" xlink:href="#linearGradient3251"/>
    <radialGradient id="radialGradient3193" cx="316.6" cy="410.14" r="291.13" fx="169.9" fy="557.98" gradientUnits="userSpaceOnUse" xlink:href="#linearGradient485"/>
    <linearGradient id="linearGradient485">
      <stop stop-color="#0052ff" offset="0"/>
      <stop stop-color="#000072" offset="1"/>
    </linearGradient>
    <radialGradient id="radialGradient3195" cx="316.2" cy="410.48" r="293.25" fx="168.43" fy="559.41" gradientUnits="userSpaceOnUse" xlink:href="#linearGradient485"/>
    <radialGradient id="radialGradient3197" cx="231.45" cy="366.21" r="508.58" gradientTransform="matrix(.51695 0 0 .44645 -19.568 -18.429)" gradientUnits="userSpaceOnUse">
      <stop stop-color="#ffd7ff" offset="0"/>
      <stop stop-color="#4040df" stop-opacity=".49804" offset="1"/>
    </radialGradient>
    <linearGradient id="linearGradient3199" x1="239.45" x2="239.45" y1="121.26" y2="373.44" gradientTransform="matrix(.71659 -.374 .17305 .33156 -95.625 86.688)" gradientUnits="userSpaceOnUse">
      <stop stop-color="#fff" offset="0"/>
      <stop stop-color="#fff" stop-opacity="0" offset="1"/>
    </linearGradient>
    <radialGradient id="radialGradient3060" cx="990.79" cy="202.91" r="52.038" fx="990.45" fy="200.56" gradientTransform="scale(.98198 1.0184)" gradientUnits="userSpaceOnUse">
      <stop stop-color="#fff" stop-opacity=".49804" offset="0"/>
      <stop stop-color="#00007f" stop-opacity="0" offset="1"/>
    </radialGradient>
  </defs>
  <g transform="matrix(.096275 0 0 .098511 .97778 22.948)" stroke="#000" stroke-linejoin="bevel" stroke-opacity=".2">
    <path d="m52.166 42.151-0.2513 294.52h230.91s0.47764-152.39 0.42481-198.46c-0.0136-11.876-0.16044-18.115-7.3719-25.894-33.24-35.855-53.348-51.87-66.597-64.319-3.7183-3.4936-5.3777-6.5829-18.354-6.7084-18.227-0.17632-76.872 0.7385-138.76 0.85601z" fill="none" stroke-width="10.268" style="paint-order:stroke fill markers"/>
    <path transform="matrix(.60095 0 0 .6099 7.4053 12.545)" d="m65.84 40.221-0.41817 482.9h384.23s0.79481-249.85 0.7069-325.39c-0.0227-19.473-0.26699-29.701-12.267-42.456-55.312-58.789-88.772-85.046-110.82-105.46-6.1873-5.7281-8.9486-10.793-30.542-10.999-30.33-0.2891-127.92 1.2109-230.89 1.4035z" fill-opacity=".2" fill-rule="evenodd" stroke-width="8.4806" style="paint-order:stroke fill markers"/>
    <path d="m46.972 37.075-0.2513 294.52h230.91s0.47764-152.39 0.42482-198.46c-0.0136-11.876-0.16045-18.115-7.3719-25.894-33.24-35.855-53.348-51.87-66.597-64.319-3.7183-3.4936-5.3776-6.5829-18.354-6.7084-18.227-0.17632-76.872 0.7385-138.76 0.85601z" fill-opacity=".2" fill-rule="evenodd" stroke-linecap="round" stroke-width="10.268" style="paint-order:stroke fill markers"/>
  </g>
  <g transform="matrix(.099246 0 0 .099246 .48056 22.941)">
    <path d="m50.332 35.437v293.77h223.99s0.28117-152.22 0.23056-197.42c-0.013-11.651-1.951-20.747-9.2223-28.037-35.777-35.866-43.504-43.408-56.203-55.62-3.5637-3.4272-9.7188-12.106-20.772-12.691-17.47-0.03146-78.713-0.11528-138.02 0z" fill="#d7e3f4" fill-rule="evenodd" stroke="#000" stroke-width=".25168"/>
    <rect x="50.332" y="122.51" width="166.5" height="206.7" fill="url(#linearGradient3405)" stroke-width="0"/>
    <path d="m206.75 117.47c30.228-5.038 47.843-7.2551 61.724-3.5024 6.1724 1.6687 6.176 1.8328 6.0767 17.816-0.50827-13.887-1.951-20.747-9.2223-28.037-35.777-35.866-43.504-43.408-56.203-55.62-10.25-11.036-15.246-12.399-20.772-12.691 16.953 1.3218 18.397 31.655 18.397 82.034z" fill="url(#linearGradient1159)" fill-rule="evenodd"/>
    <path d="m217.21 99.685c14.99 0.595 39.584 4.6336 48.866 11.08 3.9278 2.7277 8.5792 5.0371 8.4799 21.02-0.50827-13.887-1.951-20.747-9.2223-28.037-35.777-35.866-43.504-43.408-56.203-55.62-10.25-11.036-15.246-12.399-20.772-12.691 16.953 1.3218 25.129 17.979 28.851 64.248z" fill="url(#linearGradient3597)" fill-rule="evenodd" stroke="url(#linearGradient3257)" stroke-width=".25168"/>
  </g>
  <g transform="matrix(.056076 0 0 .056076 13.49 36.406)">
    <g fill-rule="evenodd" stroke="#000" stroke-linejoin="bevel" stroke-opacity=".2">
      <g fill-opacity=".2">
        <path d="m321.29 150.85a153.47 156.95 40.813 1 1-308.48 36.924 153.47 156.95 40.813 1 1 308.48-36.924z" stroke-width="17.833" style="paint-order:stroke fill markers"/>
        <path d="m321.29 150.85a153.47 156.95 40.813 1 1-308.48 36.924 153.47 156.95 40.813 1 1 308.48-36.924z" stroke-width="8.9165" style="paint-order:stroke fill markers"/>
        <path transform="matrix(.45981 -.055039 .044659 .46021 -28.935 13.97)" d="m707.06 362.61a335.44 335.44 0 1 1-670.88 0 335.44 335.44 0 1 1 670.88 0z" stroke-width="38.543" style="paint-order:stroke fill markers"/>
      </g>
      <path transform="matrix(.45981 -.055039 .044659 .46021 -28.935 13.97)" d="m707.06 362.61a335.44 335.44 0 1 1-670.88 0 335.44 335.44 0 1 1 670.88 0z" fill-opacity=".19723" stroke-width="19.272" style="paint-order:stroke fill markers"/>
    </g>
    <path transform="matrix(.45981 -.055039 .044659 .46021 -28.935 13.97)" d="m707.06 362.61a335.44 335.44 0 1 1-670.88 0 335.44 335.44 0 1 1 670.88 0z" fill="url(#radialGradient3193)" fill-rule="evenodd" stroke="#000" stroke-width="4.997"/>
    <path transform="matrix(.40397 -.044902 .039235 .37545 -5.4316 41.732)" d="m707.06 362.61a335.44 335.44 0 1 1-670.88 0 335.44 335.44 0 1 1 670.88 0z" fill="url(#radialGradient3195)" fill-rule="evenodd" stroke="#00f" stroke-opacity=".1883" stroke-width="9.9173"/>
    <path d="m185.58 109.32c-13.732-3.7258-118.28 9.1885-107.13 37.84 12.406 32.625 105.88 39.103 102.25 68.955-1.2899 10.378-33.155 20.297-57.563 19.247-25.764-1.1085-46.05-6.3129-63.98-26.608-11.258-12.743-15.921-28.232-17.124-46.662-1.2026-18.43 6.0935-38.832 16.286-53.935 22.393-33.182 50.332-52.409 89.105-57.55 91.425-11.682 126.09 65.862 125.77 64.239-0.331-1.7159-36.607-76.583-125.13-69.159-36.612 3.0706-62.782 21.504-84.155 43.604-14.892 15.41-26.023 37.162-29.132 58.782-4.5375 31.56 3.9176 59.394 25.32 79.574 17.944 16.919 46.811 23.131 77.381 23.811 42.94 0.95569 92.94-7.1293 93.349-24.932 9.5e-4 -32.123-73.462-41.833-88.992-57.992-30.443-31.055 48.15-24.6 62.086-19.142 1.3432 0.18019-11.337-38.261-18.35-40.071z" fill="url(#radialGradient3197)" stroke="#58b8ff" stroke-opacity=".72157" stroke-width="4.1513"/>
    <path d="m36.695 136.51c13.901 25.153 61.459 5.7715 104.15-17.652 42.692-23.424 84.538-51.534 70.637-76.687-13.901-25.153-80.13-23.319-116.12-3.0514-42.358 23.966-72.569 72.237-58.668 97.391z" fill="url(#linearGradient3199)" fill-rule="evenodd" stroke-width="5"/>
    <path transform="matrix(1.7117 0 0 1.4233 -1571.2 -154.88)" d="m1043.9 213.02a49.275 51.1 0 1 1-98.549 0 49.275 51.1 0 1 1 98.549 0z" fill="url(#radialGradient3060)" fill-rule="evenodd"/>
  </g>
</svg>
