<?xml version="1.0" encoding="UTF-8"?>
<svg width="320" height="320" version="1.0" viewBox=".5 25.1 320 320" xmlns="http://www.w3.org/2000/svg" xmlns:xlink="http://www.w3.org/1999/xlink">
  <defs>
    <radialGradient id="radialGradient3193" cx="316.6" cy="410.14" r="291.13" fx="169.9" fy="557.98" gradientUnits="userSpaceOnUse" xlink:href="#linearGradient485"/>
    <linearGradient id="linearGradient485">
      <stop stop-color="#0052ff" offset="0"/>
      <stop stop-color="#000072" offset="1"/>
    </linearGradient>
    <radialGradient id="radialGradient3195" cx="316.2" cy="410.48" r="293.25" fx="168.43" fy="559.41" gradientUnits="userSpaceOnUse" xlink:href="#linearGradient485"/>
    <radialGradient id="radialGradient3197" cx="231.45" cy="366.21" r="508.58" gradientTransform="matrix(.51695 0 0 .44645 -19.568 -18.429)" gradientUnits="userSpaceOnUse">
      <stop stop-color="#ffd7ff" offset="0"/>
      <stop stop-color="#4040df" stop-opacity=".49804" offset="1"/>
    </radialGradient>
    <linearGradient id="linearGradient3199" x1="239.45" x2="239.45" y1="121.26" y2="373.44" gradientTransform="matrix(.71659 -.374 .17305 .33156 -95.625 86.688)" gradientUnits="userSpaceOnUse">
      <stop stop-color="#fff" offset="0"/>
      <stop stop-color="#fff" stop-opacity="0" offset="1"/>
    </linearGradient>
    <radialGradient id="radialGradient3060" cx="990.79" cy="202.91" r="52.038" fx="990.45" fy="200.56" gradientTransform="scale(.98198 1.0184)" gradientUnits="userSpaceOnUse">
      <stop stop-color="#fff" stop-opacity=".49804" offset="0"/>
      <stop stop-color="#00007f" stop-opacity="0" offset="1"/>
    </radialGradient>
  </defs>
  <g transform="matrix(.95043 0 0 .95043 5.632 29.148)">
    <g fill-rule="evenodd" stroke="#000" stroke-linejoin="bevel" stroke-opacity=".2">
      <g fill-opacity=".2">
        <path d="m321.29 150.85a153.47 156.95 40.813 1 1-308.48 36.924 153.47 156.95 40.813 1 1 308.48-36.924z" stroke-width="17.833" style="paint-order:stroke fill markers"/>
        <path d="m321.29 150.85a153.47 156.95 40.813 1 1-308.48 36.924 153.47 156.95 40.813 1 1 308.48-36.924z" stroke-width="8.9165" style="paint-order:stroke fill markers"/>
        <path transform="matrix(.45981 -.055039 .044659 .46021 -28.935 13.97)" d="m707.06 362.61a335.44 335.44 0 1 1-670.88 0 335.44 335.44 0 1 1 670.88 0z" stroke-width="38.543" style="paint-order:stroke fill markers"/>
      </g>
      <path transform="matrix(.45981 -.055039 .044659 .46021 -28.935 13.97)" d="m707.06 362.61a335.44 335.44 0 1 1-670.88 0 335.44 335.44 0 1 1 670.88 0z" fill-opacity=".19723" stroke-width="19.272" style="paint-order:stroke fill markers"/>
    </g>
    <path transform="matrix(.45981 -.055039 .044659 .46021 -28.935 13.97)" d="m707.06 362.61a335.44 335.44 0 1 1-670.88 0 335.44 335.44 0 1 1 670.88 0z" fill="url(#radialGradient3193)" fill-rule="evenodd" stroke="#000" stroke-width="4.997"/>
    <path transform="matrix(.40397 -.044902 .039235 .37545 -5.4316 41.732)" d="m707.06 362.61a335.44 335.44 0 1 1-670.88 0 335.44 335.44 0 1 1 670.88 0z" fill="url(#radialGradient3195)" fill-rule="evenodd" stroke="#00f" stroke-opacity=".1883" stroke-width="9.9173"/>
    <path d="m185.58 109.32c-13.732-3.7258-118.28 9.1885-107.13 37.84 12.406 32.625 105.88 39.103 102.25 68.955-1.2899 10.378-33.155 20.297-57.563 19.247-25.764-1.1085-46.05-6.3129-63.98-26.608-11.258-12.743-15.921-28.232-17.124-46.662-1.2026-18.43 6.0935-38.832 16.286-53.935 22.393-33.182 50.332-52.409 89.105-57.55 91.425-11.682 126.09 65.862 125.77 64.239-0.331-1.7159-36.607-76.583-125.13-69.159-36.612 3.0706-62.782 21.504-84.155 43.604-14.892 15.41-26.023 37.162-29.132 58.782-4.5375 31.56 3.9176 59.394 25.32 79.574 17.944 16.919 46.811 23.131 77.381 23.811 42.94 0.95569 92.94-7.1293 93.349-24.932 9.5e-4 -32.123-73.462-41.833-88.992-57.992-30.443-31.055 48.15-24.6 62.086-19.142 1.3432 0.18019-11.337-38.261-18.35-40.071z" fill="url(#radialGradient3197)" stroke="#58b8ff" stroke-opacity=".72157" stroke-width="4.1513"/>
    <path d="m36.695 136.51c13.901 25.153 61.459 5.7715 104.15-17.652 42.692-23.424 84.538-51.534 70.637-76.687-13.901-25.153-80.13-23.319-116.12-3.0514-42.358 23.966-72.569 72.237-58.668 97.391z" fill="url(#linearGradient3199)" fill-rule="evenodd" stroke-width="5"/>
    <path transform="matrix(1.7117 0 0 1.4233 -1571.2 -154.88)" d="m1043.9 213.02a49.275 51.1 0 1 1-98.549 0 49.275 51.1 0 1 1 98.549 0z" fill="url(#radialGradient3060)" fill-rule="evenodd"/>
  </g>
</svg>
